<?xml version="1.0" encoding="UTF-8" standalone="no"?>
<!-- Created with Inkscape (http://www.inkscape.org/) -->

<svg
   xmlns:dc="http://purl.org/dc/elements/1.1/"
   xmlns:cc="http://creativecommons.org/ns#"
   xmlns:rdf="http://www.w3.org/1999/02/22-rdf-syntax-ns#"
   xmlns:svg="http://www.w3.org/2000/svg"
   xmlns="http://www.w3.org/2000/svg"
   xmlns:sodipodi="http://sodipodi.sourceforge.net/DTD/sodipodi-0.dtd"
   xmlns:inkscape="http://www.inkscape.org/namespaces/inkscape"
   width="735"
   height="500"
   viewBox="0 0 735.00001 500.00001"
   id="svg3369"
   version="1.1"
   inkscape:version="0.91 r13725"
   sodipodi:docname="arrow.svg">
  <defs
     id="defs3371" />
  <sodipodi:namedview
     id="base"
     pagecolor="#ffffff"
     bordercolor="#666666"
     borderopacity="1.0"
     inkscape:pageopacity="0.0"
     inkscape:pageshadow="2"
     inkscape:zoom="0.98994949"
     inkscape:cx="145.11548"
     inkscape:cy="347.23119"
     inkscape:document-units="px"
     inkscape:current-layer="layer1"
     showgrid="false"
     inkscape:window-width="1867"
     inkscape:window-height="1056"
     inkscape:window-x="53"
     inkscape:window-y="24"
     inkscape:window-maximized="1"
     units="px"
     borderlayer="false">
    <sodipodi:guide
       position="745.71429,0"
       orientation="0,744.09449"
       id="guide3395" />
    <sodipodi:guide
       position="745.71429,0"
       orientation="-1052.3622,0"
       id="guide3397" />
    <sodipodi:guide
       position="744.09449,502.85715"
       orientation="0,-744.09449"
       id="guide3399" />
    <sodipodi:guide
       position="0,1052.3622"
       orientation="1052.3622,0"
       id="guide3401" />
  </sodipodi:namedview>
  <metadata
     id="metadata3374">
    <rdf:RDF>
      <cc:Work
         rdf:about="">
        <dc:format>image/svg+xml</dc:format>
        <dc:type
           rdf:resource="http://purl.org/dc/dcmitype/StillImage" />
        <dc:title></dc:title>
      </cc:Work>
    </rdf:RDF>
  </metadata>
  <g
     inkscape:label="Layer 1"
     inkscape:groupmode="layer"
     id="layer1"
     transform="translate(0,-552.36216)">
    <g
       id="g3"
       transform="matrix(2.5490478,2.6128274,-2.8564691,2.2727901,274.65085,338.01214)">
      <path
         style="fill:#626262"
         d="m 183.007,2.152 c -2.535,-2.322 -6.233,-2.812 -9.274,-1.24 L 6.792,87.377 c -3.078,1.594 -4.814,4.96 -4.324,8.392 0.484,3.432 3.089,6.184 6.489,6.864 l 70.137,13.902 19.211,65.622 c 0.979,3.318 3.932,5.673 7.381,5.858 0.147,0.005 0.299,0.011 0.446,0.011 3.285,0 6.255,-1.969 7.533,-5.031 l 71.35,-171.7 c 1.315,-3.165 0.516,-6.82 -2.008,-9.143 z M 107.475,155.387 93.366,107.202 c -0.859,-2.921 -3.269,-5.118 -6.244,-5.716 L 34.994,91.152 161.365,25.704 107.475,155.387 Z"
         id="path5"
         inkscape:connector-curvature="0" />
    </g>
  </g>
</svg>
